<?xml version="1.0" encoding="UTF-8" standalone="no"?>
<!-- Created with Inkscape (http://www.inkscape.org/) -->
<svg
   xmlns:dc="http://purl.org/dc/elements/1.1/"
   xmlns:cc="http://creativecommons.org/ns#"
   xmlns:rdf="http://www.w3.org/1999/02/22-rdf-syntax-ns#"
   xmlns:svg="http://www.w3.org/2000/svg"
   xmlns="http://www.w3.org/2000/svg"
   xmlns:xlink="http://www.w3.org/1999/xlink"
   xmlns:sodipodi="http://sodipodi.sourceforge.net/DTD/sodipodi-0.dtd"
   xmlns:inkscape="http://www.inkscape.org/namespaces/inkscape"
   width="300"
   height="150"
   id="svg3375"
   sodipodi:version="0.32"
   inkscape:version="0.45+devel"
   sodipodi:docname="logo-Abelo.svg"
   inkscape:output_extension="org.inkscape.output.svg.inkscape"
   version="1.0">
  <defs
     id="defs3377">
    <linearGradient
       inkscape:collect="always"
       id="linearGradient8062">
      <stop
         style="stop-color:#eeeeec;stop-opacity:1;"
         offset="0"
         id="stop8064" />
      <stop
         style="stop-color:#eeeeec;stop-opacity:0;"
         offset="1"
         id="stop8066" />
    </linearGradient>
    <linearGradient
       inkscape:collect="always"
       xlink:href="#linearGradient8062"
       id="linearGradient6269"
       gradientUnits="userSpaceOnUse"
       gradientTransform="matrix(0.904543,0,0,0.904543,596.255,190.1808)"
       x1="-23.498034"
       y1="-204.92856"
       x2="-23.498034"
       y2="-125.2987" />
    <filter
       inkscape:collect="always"
       id="filter4284">
      <feGaussianBlur
         inkscape:collect="always"
         stdDeviation="1.3693148"
         id="feGaussianBlur4286" />
    </filter>
    <linearGradient
       inkscape:collect="always"
       id="linearGradient6244">
      <stop
         style="stop-color:#2e3436;stop-opacity:1;"
         offset="0"
         id="stop6246" />
      <stop
         style="stop-color:#2e3436;stop-opacity:0;"
         offset="1"
         id="stop6248" />
    </linearGradient>
    <linearGradient
       inkscape:collect="always"
       xlink:href="#linearGradient6244"
       id="linearGradient6267"
       gradientUnits="userSpaceOnUse"
       gradientTransform="matrix(0.904543,0,0,0.904543,336.6453,-368.6805)"
       x1="146.25061"
       y1="449.01645"
       x2="104.60637"
       y2="383.07547" />
    <filter
       inkscape:collect="always"
       id="filter4686">
      <feGaussianBlur
         inkscape:collect="always"
         stdDeviation="0.85255191"
         id="feGaussianBlur4688" />
    </filter>
  </defs>
  <sodipodi:namedview
     id="base"
     pagecolor="#ffffff"
     bordercolor="#666666"
     borderopacity="1.0"
     inkscape:pageopacity="0.0"
     inkscape:pageshadow="2"
     inkscape:zoom="1"
     inkscape:cx="150"
     inkscape:cy="75"
     inkscape:document-units="px"
     inkscape:current-layer="layer1"
     inkscape:window-width="692"
     inkscape:window-height="668"
     inkscape:window-x="221"
     inkscape:window-y="0"
     width="300px"
     height="150px" />
  <metadata
     id="metadata3380">
    <rdf:RDF>
      <cc:Work
         rdf:about="">
        <dc:format>image/svg+xml</dc:format>
        <dc:type
           rdf:resource="http://purl.org/dc/dcmitype/StillImage" />
      </cc:Work>
    </rdf:RDF>
  </metadata>
  <g
     inkscape:label="Camada 1"
     inkscape:groupmode="layer"
     id="layer1">
    <g
       id="g4106"
       transform="translate(-9.7829243,3.164149)"
       inkscape:export-filename="/home/aurium/abelo/public/designs/templates/default/source/logo.png"
       inkscape:export-xdpi="92.538528"
       inkscape:export-ydpi="92.538528">
      <g
         id="g6047"
         transform="matrix(0.8402852,0,0,0.8402852,-322.57354,18.685261)">
        <rect
           inkscape:export-ydpi="63.28125"
           inkscape:export-xdpi="63.28125"
           inkscape:export-filename="/home/valessio/Desktop/Abelo/Layout/images/logoabelo.png"
           y="5.3622851"
           x="412.57806"
           height="115.7815"
           width="322.92184"
           id="rect6049"
           style="color:#000000;fill:none;fill-opacity:1;fill-rule:evenodd;stroke:none;stroke-width:1.29999995;stroke-linecap:round;stroke-linejoin:round;marker:none;marker-start:none;marker-mid:none;marker-end:none;stroke-miterlimit:4;stroke-dasharray:none;stroke-dashoffset:0;stroke-opacity:1;visibility:visible;display:inline;overflow:visible" />
        <g
           id="g6051">
          <path
             style="color:#000000;fill:#555753;fill-opacity:1;fill-rule:evenodd;stroke:none;stroke-width:0.90200001;stroke-linecap:round;stroke-linejoin:round;marker:none;stroke-miterlimit:4;stroke-dashoffset:0;stroke-opacity:1;visibility:visible;display:inline;overflow:visible;filter:url(#filter4686)"
             d="M 430.68952,16.685256 C 430.6418,16.691334 430.59457,16.700796 430.54819,16.713522 C 430.54817,16.713513 430.52607,16.738913 430.51992,16.741789 L 430.51992,16.770056 C 430.46017,16.779219 430.40795,16.812353 430.35032,16.82659 C 430.28476,16.857309 430.20903,16.883097 430.20898,16.883124 C 429.76346,17.030538 429.36128,17.273299 429.10657,17.702866 L 419.04353,35.087052 C 419.03353,35.105595 419.0241,35.124455 419.01526,35.143586 L 418.987,35.20012 C 418.91066,35.348664 418.87185,35.513653 418.87393,35.680659 C 418.87379,35.690075 418.8738,35.699509 418.87393,35.708925 C 418.81398,35.9889 418.8244,36.231344 418.87393,36.500401 C 418.87237,36.514123 418.87489,36.514521 418.87393,36.528668 C 418.86986,36.588494 418.89649,36.615486 418.90219,36.670002 C 418.92743,36.762483 418.92146,36.868731 418.95873,36.952672 C 418.96688,36.973902 418.9508,37.020341 418.95873,37.037473 C 418.97615,37.066663 418.99502,37.094966 419.01526,37.122274 L 428.51296,53.545383 L 419.04353,69.940225 C 419.04339,69.949641 419.0434,69.959066 419.04353,69.968492 C 418.96169,70.106109 418.91328,70.26103 418.90219,70.420763 C 418.90206,70.430179 418.90207,70.439605 418.90219,70.44903 L 418.90219,70.477297 C 418.82838,70.776185 418.82074,71.036332 418.87393,71.325306 C 418.87237,71.33901 418.87489,71.339426 418.87393,71.353573 C 418.86985,71.413372 418.8965,71.440382 418.90219,71.494908 C 418.92743,71.587379 418.92146,71.693636 418.95873,71.777578 C 418.96688,71.798807 418.9508,71.845228 418.95873,71.862379 C 418.97615,71.891559 418.99502,71.919871 419.01526,71.947179 L 429.10657,89.387899 C 429.41768,89.954532 429.97072,90.367772 430.80259,90.377243 L 431.62233,90.377243 L 432.21594,91.423121 C 432.52951,91.951989 433.04135,92.265676 433.62929,92.355931 L 433.62929,92.384198 C 433.62942,92.384225 433.66899,92.38114 433.68582,92.384198 C 433.70466,92.384713 433.72351,92.384732 433.74235,92.384198 C 433.76796,92.388648 433.77603,92.408946 433.79889,92.412465 C 433.80831,92.412582 433.81773,92.4126 433.82715,92.412465 C 433.83547,92.413541 433.85074,92.412212 433.85542,92.412465 C 433.86472,92.413641 433.87884,92.41223 433.88369,92.412465 C 433.89311,92.412582 433.90253,92.4126 433.91196,92.412465 C 433.92138,92.412582 433.9308,92.4126 433.94022,92.412465 L 452.87909,92.412465 L 462.37679,108.83557 C 462.74177,109.45116 463.35347,109.81655 464.07281,109.82492 L 484.22716,109.82492 C 485.05902,109.81544 485.61207,109.40222 485.92318,108.83557 L 496.01449,91.394854 C 496.03472,91.367537 496.0536,91.339252 496.07102,91.310053 C 496.07894,91.292894 496.06286,91.2465 496.07102,91.225252 C 496.10828,91.141301 496.10231,91.035072 496.12755,90.942582 C 496.13324,90.888048 496.15989,90.861065 496.15582,90.801248 C 496.15485,90.787091 496.15738,90.786703 496.15582,90.772981 C 496.209,90.483997 496.20136,90.223878 496.12755,89.924972 L 496.12755,89.896705 C 496.12767,89.88727 496.12768,89.877872 496.12755,89.868438 C 496.11645,89.708695 496.06805,89.553801 495.98622,89.416166 C 495.98634,89.406732 495.98635,89.397334 495.98622,89.387899 L 486.51678,72.993057 L 496.01449,56.569948 C 496.03472,56.542631 496.0536,56.514337 496.07102,56.485148 C 496.07894,56.468006 496.06287,56.421576 496.07102,56.400347 C 496.10828,56.316396 496.10231,56.210157 496.12755,56.117677 C 496.13325,56.063151 496.15989,56.036169 496.15582,55.976342 C 496.15485,55.962186 496.15738,55.961797 496.15582,55.948075 C 496.20533,55.67901 496.21576,55.436574 496.15582,55.1566 C 496.15594,55.147166 496.15595,55.137749 496.15582,55.128333 C 496.15789,54.961318 496.11908,54.796348 496.04275,54.647795 L 496.01449,54.591261 C 496.00564,54.57212 495.99622,54.55327 495.98622,54.534727 L 485.92318,37.150541 C 485.66846,36.720964 485.26629,36.478221 484.82077,36.330799 C 484.82071,36.330754 484.74499,36.304992 484.67943,36.274265 C 484.62179,36.260009 484.56957,36.226903 484.50983,36.217731 L 484.50983,36.189464 C 484.50367,36.186569 484.48158,36.161197 484.48156,36.161197 C 484.43517,36.148452 484.38795,36.139018 484.34023,36.13293 C 484.30256,36.130841 484.26482,36.13085 484.22716,36.13293 L 483.40742,36.13293 L 482.81381,35.087052 C 482.63582,34.776161 482.34958,34.48772 482.10714,34.352111 C 481.79616,34.178185 481.48691,34.141877 481.25913,34.125975 C 481.03249,34.103253 481.03333,34.124284 481.11779,34.125975 C 481.12141,34.126039 481.04992,34.125921 481.00473,34.125975 L 480.91992,34.125975 L 462.15066,34.125975 L 452.68122,17.702866 C 452.48537,17.36075 452.23069,17.09874 451.94628,16.939658 C 451.73049,16.818947 451.45667,16.710275 451.09827,16.685256 C 450.9581,16.671226 450.91829,16.683917 450.9852,16.685256 C 450.98073,16.685156 450.9001,16.684839 450.84387,16.685256 L 450.75907,16.685256 L 430.80259,16.685256 C 430.76492,16.683166 430.72718,16.683175 430.68952,16.685256 z M 431.96153,20.670898 L 449.76972,20.670898 L 458.70209,36.076396 L 449.74146,51.538428 L 431.96153,51.538428 L 423.05744,36.104663 L 431.96153,20.670898 z M 465.26002,40.118573 L 481.11779,40.118573 L 488.86294,53.545383 L 479.93058,68.979148 L 464.12934,68.979148 L 456.32766,55.524071 L 465.26002,40.118573 z M 435.09917,57.531025 L 450.9004,57.559292 L 458.70209,70.986102 L 449.79799,86.3916 L 433.91196,86.3916 L 426.16681,72.993057 L 435.09917,57.531025 z M 465.28829,75.000012 L 483.06821,75.000012 L 491.97231,90.40551 L 483.06821,105.83927 L 465.23176,105.83927 L 456.32766,90.433777 L 465.28829,75.000012 z"
             id="path6053" />
          <g
             id="g6055"
             transform="translate(0,40)">
            <path
               id="path6057"
               d="M 430.36939,-21.720053 L 419.60682,-3.782432 L 431.26628,15.052071 L 420.50371,29.402166 L 430.36939,48.236669 L 450.10078,49.133551 L 460.86336,32.092811 L 481.49162,30.299048 L 491.35731,14.155189 L 481.49162,-2.88555 L 461.76024,-3.782432 L 450.10078,-21.720053 L 430.36939,-21.720053 z"
               style="fill:url(#linearGradient6267);fill-opacity:1;fill-rule:evenodd;stroke:none;stroke-width:1px;stroke-linecap:butt;stroke-linejoin:miter;stroke-opacity:1" />
            <path
               id="path6059"
               d="M 431.96153,-19.329102 L 423.05744,-3.895337 L 431.96153,11.538428 L 435.1557,11.538428 C 434.40454,9.251002 433.96849,6.810011 433.96849,4.273817 C 433.96849,-6.242979 440.96026,-15.09689 450.53293,-18.000554 L 449.76972,-19.329102 L 431.96153,-19.329102 z M 479.93058,-1.916649 L 462.17892,-1.888382 L 453.24656,13.517116 L 462.17892,28.979148 L 464.86429,28.979148 C 464.03121,26.582109 463.56401,23.998399 463.56401,21.318799 C 463.56401,10.686439 470.70443,1.733354 480.43939,-1.06864 L 479.93058,-1.916649 z M 431.96153,15.552338 L 423.05744,30.957836 L 431.96153,46.3916 L 435.72104,46.3916 C 435.16431,44.399345 434.84477,42.310013 434.84477,40.1446 C 434.84477,29.73104 441.69868,20.946209 451.12654,17.95503 L 449.74146,15.552338 L 431.96153,15.552338 z"
               style="fill:#ffffff;fill-opacity:0.125;fill-rule:evenodd;stroke:none;stroke-width:1px;stroke-linecap:butt;stroke-linejoin:miter;stroke-opacity:1" />
            <path
               id="path6061"
               d="M 463.94322,-3.864673 C 463.58482,-3.839653 463.311,-3.730972 463.09521,-3.61027 C 462.8108,-3.451197 462.55611,-3.189169 462.36027,-2.847062 L 452.89083,13.576047 L 434.12156,13.576047 L 434.03676,13.576047 C 433.99157,13.575983 433.92007,13.576119 433.9237,13.576047 C 434.00816,13.574355 434.00899,13.553334 433.78236,13.576047 C 433.55458,13.59194 433.24532,13.628257 432.93435,13.802183 C 432.69191,13.937783 432.40566,14.226241 432.22768,14.537124 L 422.16464,31.977843 C 422.14439,32.005152 422.12552,32.033464 422.1081,32.062644 C 422.11646,32.056023 422.11548,32.071663 422.1081,32.090911 C 422.09829,32.104669 422.07596,32.113652 422.05157,32.175712 L 422.07984,32.175712 C 421.84308,32.709013 421.83032,33.416112 422.16464,33.984798 C 422.17387,33.994404 422.1833,34.003839 422.1929,34.013065 C 422.22311,34.083023 422.26103,34.149398 422.30597,34.210934 L 422.33424,34.239201 L 432.22768,51.425518 C 432.54125,51.954395 433.05309,52.268073 433.64103,52.358328 L 433.64103,52.386595 C 433.64116,52.386631 433.68073,52.383538 433.69756,52.386595 C 433.7164,52.38712 433.73525,52.387129 433.75409,52.386595 C 433.7797,52.391054 433.78777,52.411343 433.81063,52.414862 C 433.82005,52.414988 433.82947,52.414998 433.8389,52.414862 C 433.84721,52.415947 433.86248,52.414609 433.86716,52.414862 C 433.87646,52.416047 433.89058,52.414627 433.89543,52.414862 C 433.90485,52.414988 433.91427,52.414998 433.9237,52.414862 C 433.93312,52.414988 433.94254,52.414998 433.95196,52.414862 L 452.89083,52.414862 L 462.38853,68.83797 C 462.75352,69.45357 463.36521,69.81895 464.08455,69.82731 L 484.2389,69.82731 C 485.07077,69.81784 485.62381,69.40462 485.93492,68.83797 L 496.02623,51.397251 C 496.04647,51.369943 496.06534,51.341649 496.08276,51.31245 C 496.09069,51.2953 496.0746,51.248897 496.08276,51.227649 C 496.12003,51.143708 496.11405,51.037469 496.13929,50.944979 C 496.14499,50.890454 496.17163,50.863462 496.16756,50.803645 C 496.1666,50.789498 496.16912,50.7891 496.16756,50.775378 C 496.22075,50.486403 496.2131,50.226275 496.13929,49.927369 L 496.13929,49.899102 C 496.13942,49.889676 496.13942,49.880269 496.13929,49.870835 C 496.1282,49.711101 496.07979,49.556198 495.99796,49.418563 C 495.99809,49.409138 495.99809,49.399731 495.99796,49.390296 L 486.52852,32.995454 L 496.02623,16.572345 C 496.04647,16.545037 496.06534,16.516734 496.08276,16.487545 C 496.09069,16.470413 496.07461,16.423973 496.08276,16.402744 C 496.12003,16.318802 496.11405,16.212554 496.13929,16.120074 C 496.145,16.065557 496.17163,16.038566 496.16756,15.978739 C 496.1666,15.964592 496.16912,15.964194 496.16756,15.950472 C 496.21708,15.681416 496.2275,15.438971 496.16756,15.158997 C 496.16769,15.149572 496.16769,15.140146 496.16756,15.13073 C 496.16964,14.963724 496.13082,14.798745 496.05449,14.650192 L 496.02623,14.593658 C 496.01739,14.574527 496.00796,14.555667 495.99796,14.537124 L 485.93492,-2.847062 C 485.68021,-3.27663 485.27803,-3.519382 484.83251,-3.666804 C 484.83246,-3.66684 484.75673,-3.692611 484.69117,-3.723338 C 484.63354,-3.737585 484.58132,-3.7707 484.52157,-3.779872 L 484.52157,-3.808139 C 484.51542,-3.811024 484.49332,-3.836406 484.4933,-3.836406 C 484.44692,-3.849142 484.39969,-3.858585 484.35197,-3.864673 C 484.31431,-3.866753 484.27657,-3.866753 484.2389,-3.864673 L 464.28242,-3.864673 L 464.19762,-3.864673 C 464.14138,-3.865089 464.06076,-3.864772 464.05628,-3.864673 C 464.1232,-3.866012 464.08338,-3.878693 463.94322,-3.864673 z M 465.27176,0.12097 L 483.07995,0.12097 L 491.98405,15.554735 L 483.07995,30.9885 L 465.30003,30.9885 L 456.3394,15.526468 L 465.27176,0.12097 z M 435.11091,17.533422 L 452.86257,17.561689 L 461.79493,32.967187 L 452.86257,48.429219 L 435.11091,48.429219 L 426.17855,32.995454 L 435.11091,17.533422 z M 465.30003,35.002409 L 483.07995,35.002409 L 491.98405,50.407907 L 483.07995,65.84167 L 465.2435,65.84167 L 456.3394,50.436174 L 465.30003,35.002409 z"
               style="color:#000000;fill:#555753;fill-opacity:1;fill-rule:evenodd;stroke:none;stroke-width:0.90200001;stroke-linecap:round;stroke-linejoin:round;marker:none;stroke-miterlimit:4;stroke-dashoffset:0;stroke-opacity:1;visibility:visible;display:inline;overflow:visible" />
            <path
               id="path6063"
               d="M 430.70126,-23.312347 C 430.65354,-23.30626 430.60631,-23.296807 430.55993,-23.28408 C 430.55991,-23.28408 430.53781,-23.25869 430.53166,-23.255814 L 430.53166,-23.227547 C 430.47191,-23.218374 430.41969,-23.18525 430.36206,-23.171013 C 430.2965,-23.140285 430.22077,-23.114506 430.22072,-23.114479 C 429.7752,-22.967056 429.37302,-22.724304 429.11831,-22.294737 L 419.05527,-4.910551 C 419.04527,-4.891999 419.03584,-4.873148 419.027,-4.854017 L 418.99874,-4.797483 C 418.9224,-4.64893 418.88359,-4.48395 418.88567,-4.316944 C 418.88553,-4.307519 418.88554,-4.298094 418.88567,-4.288677 C 418.82573,-4.008694 418.83615,-3.766259 418.88567,-3.497202 C 418.88411,-3.483471 418.88664,-3.483082 418.88567,-3.468935 C 418.8816,-3.4091 418.90824,-3.382117 418.91394,-3.327601 C 418.93917,-3.235111 418.9332,-3.128872 418.97047,-3.044931 C 418.97862,-3.023692 418.96254,-2.977262 418.97047,-2.96013 C 418.98789,-2.930931 419.00677,-2.902637 419.027,-2.875329 L 428.52471,13.54778 L 419.05527,29.942622 C 419.05513,29.952047 419.05514,29.961463 419.05527,29.970889 C 418.97343,30.108515 418.92503,30.263427 418.91394,30.42316 C 418.9138,30.432585 418.91381,30.442002 418.91394,30.451427 L 418.91394,30.479694 C 418.84013,30.778591 418.83249,31.038729 418.88567,31.327703 C 418.88411,31.341416 418.88664,31.341823 418.88567,31.35597 C 418.8816,31.415779 418.90824,31.442779 418.91394,31.497305 C 418.93917,31.589785 418.9332,31.696033 418.97047,31.779975 C 418.97862,31.801213 418.96254,31.847625 418.97047,31.864776 C 418.98789,31.893965 419.00677,31.922268 419.027,31.949576 L 429.11831,49.390296 C 429.42942,49.956938 429.98246,50.37017 430.81433,50.37964 L 450.96868,50.37964 C 451.68802,50.371264 452.29971,50.005892 452.6647,49.390296 L 462.1624,32.967187 L 481.10127,32.967187 C 481.11069,32.967314 481.12011,32.967314 481.12953,32.967187 C 481.13896,32.967314 481.14838,32.967314 481.1578,32.967187 C 481.16265,32.966943 481.17677,32.968372 481.18607,32.967187 C 481.19075,32.966925 481.20602,32.968273 481.21433,32.967187 C 481.22376,32.967314 481.23318,32.967314 481.2426,32.967187 C 481.26546,32.96366 481.27353,32.94338 481.29914,32.93892 C 481.31798,32.939445 481.33683,32.939445 481.35567,32.93892 C 481.3725,32.935854 481.41207,32.938957 481.4122,32.93892 L 481.4122,32.910653 C 482.00014,32.820389 482.51198,32.506721 482.82555,31.977843 L 492.71899,14.791526 L 492.74726,14.763259 C 492.7922,14.701714 492.83012,14.635348 492.86033,14.565391 C 492.86993,14.556155 492.87936,14.54673 492.88859,14.537124 C 493.22291,13.968428 493.21015,13.261338 492.97339,12.728038 L 493.00166,12.728038 C 492.97727,12.665977 492.95494,12.656995 492.94513,12.643237 C 492.93775,12.623988 492.93677,12.608349 492.94513,12.61497 C 492.92771,12.58578 492.90884,12.557477 492.88859,12.530169 L 482.82555,-4.910551 C 482.64757,-5.221433 482.36132,-5.509883 482.11888,-5.645492 C 481.80791,-5.819408 481.49865,-5.855726 481.27087,-5.871628 C 481.04424,-5.894341 481.04507,-5.873319 481.12953,-5.871628 C 481.13316,-5.871555 481.06166,-5.871682 481.01647,-5.871628 L 480.93167,-5.871628 L 462.1624,-5.871628 L 452.69296,-22.294737 C 452.49712,-22.636844 452.24243,-22.898863 451.95802,-23.057945 C 451.74223,-23.178647 451.46841,-23.287328 451.11001,-23.312347 C 450.96985,-23.326368 450.93003,-23.313686 450.99695,-23.312347 C 450.99247,-23.312438 450.91185,-23.312764 450.85561,-23.312347 L 450.77081,-23.312347 L 430.81433,-23.312347 C 430.77666,-23.314428 430.73892,-23.314428 430.70126,-23.312347 z M 431.97328,-19.326705 L 449.78147,-19.326705 L 458.71383,-3.921207 L 449.7532,11.540825 L 431.97328,11.540825 L 423.06918,-3.89294 L 431.97328,-19.326705 z M 479.94232,-1.914252 L 488.87468,13.54778 L 479.94232,28.981545 L 462.19066,28.981545 L 453.2583,13.519513 L 462.19066,-1.885985 L 479.94232,-1.914252 z M 431.97328,15.554735 L 449.7532,15.554735 L 458.71383,30.9885 L 449.80973,46.393997 L 431.97328,46.393997 L 423.06918,30.960233 L 431.97328,15.554735 z"
               style="color:#000000;fill:#edd400;fill-opacity:1;fill-rule:evenodd;stroke:none;stroke-width:0.90200001;stroke-linecap:round;stroke-linejoin:round;marker:none;stroke-miterlimit:4;stroke-dashoffset:0;stroke-opacity:1;visibility:visible;display:inline;overflow:visible" />
            <path
               id="path6065"
               d="M 429.89805,-22.975541 C 429.58504,-22.824934 429.2976,-22.619314 429.10657,-22.297134 L 419.04353,-4.912948 C 419.03353,-4.894405 419.0241,-4.875545 419.01526,-4.856414 L 418.987,-4.79988 C 418.91066,-4.651336 418.87185,-4.486347 418.87393,-4.319341 C 418.87379,-4.309925 418.8738,-4.300491 418.87393,-4.291075 C 418.81398,-4.0111 418.8244,-3.768656 418.87393,-3.499599 C 418.87237,-3.485877 418.87489,-3.485479 418.87393,-3.471332 C 418.86986,-3.411506 418.89649,-3.384514 418.90219,-3.329998 C 418.92743,-3.237517 418.92146,-3.131269 418.95873,-3.047328 C 418.96688,-3.026098 418.9508,-2.979659 418.95873,-2.962527 C 418.97615,-2.933337 418.99502,-2.905034 419.01526,-2.877726 L 428.51296,13.545383 L 419.04353,29.940225 C 419.04339,29.949641 419.0434,29.959066 419.04353,29.968492 C 418.96169,30.106109 418.91328,30.26103 418.90219,30.420763 C 418.90206,30.430179 418.90207,30.439605 418.90219,30.44903 L 418.90219,30.477297 C 418.82838,30.776185 418.82074,31.036332 418.87393,31.325306 C 418.87237,31.33901 418.87489,31.339426 418.87393,31.353573 C 418.86985,31.413372 418.8965,31.440382 418.90219,31.494908 C 418.92743,31.587379 418.92146,31.693636 418.95873,31.777578 C 418.96688,31.798807 418.9508,31.845228 418.95873,31.862379 C 418.97615,31.891559 418.99502,31.919871 419.01526,31.947179 L 429.10657,49.387899 C 429.41768,49.954532 429.97072,50.367772 430.80259,50.377243 L 450.95694,50.377243 C 451.67628,50.368858 452.28797,50.003495 452.65296,49.387899 L 462.15066,32.96479 L 462.17892,32.96479 L 449.76972,11.481894 L 449.74146,11.538428 L 431.96153,11.538428 L 423.05744,-3.895337 L 431.96153,-19.329102 L 431.9898,-19.329102 L 429.89805,-22.975541 z M 431.96153,15.552338 L 449.74146,15.552338 L 458.70209,30.986102 L 449.79799,46.3916 L 431.96153,46.3916 L 423.05744,30.957836 L 431.96153,15.552338 z"
               style="color:#000000;fill:#fce94f;fill-opacity:1;fill-rule:evenodd;stroke:none;stroke-width:0.90200001;stroke-linecap:round;stroke-linejoin:round;marker:none;stroke-miterlimit:4;stroke-dashoffset:0;stroke-opacity:1;visibility:visible;display:inline;overflow:visible" />
          </g>
        </g>
        <g
           id="g6067">
          <path
             id="path6069"
             d="M 539.50233,20.550757 L 564.95897,75.13781 L 559.09578,75.13781 L 550.52365,57.17715 L 526.99667,57.17715 L 518.46164,75.13781 L 512.3758,75.13781 L 538.16642,20.550757 L 539.50233,20.550757 M 538.83438,32.128708 L 529.44584,51.907699 L 548.11158,51.907699 L 538.83438,32.128708 M 572.93736,75.13781 L 572.93736,19.177733 L 578.09549,19.177733 L 578.09549,41.70278 C 580.27252,39.030977 582.70933,37.039481 585.40592,35.728265 C 588.10247,34.392381 591.05881,33.724431 594.27493,33.724385 C 599.98965,33.724431 604.86326,35.802519 608.8958,39.958668 C 612.95298,44.090141 614.98159,49.11219 614.98164,55.024835 C 614.98159,60.863308 612.94061,65.848244 608.85869,69.979681 C 604.77668,74.111136 599.86595,76.176859 594.12649,76.176859 C 590.83615,76.176859 587.85508,75.471785 585.18327,74.061657 C 582.51142,72.65152 580.14882,70.536318 578.09549,67.716044 L 578.09549,75.13781 L 572.93736,75.13781 M 593.71829,71.167165 C 596.61275,71.167174 599.28459,70.462101 601.7338,69.051963 C 604.18294,67.617096 606.12497,65.613226 607.55988,63.040334 C 609.01945,60.467479 609.74925,57.746171 609.7493,54.8764 C 609.74925,52.006674 609.01945,49.273 607.55988,46.675361 C 606.10023,44.077775 604.13346,42.061531 601.65958,40.626627 C 599.21037,39.167048 596.58801,38.437244 593.79251,38.437208 C 590.94748,38.437244 588.23854,39.167048 585.66569,40.626627 C 583.11753,42.061531 581.15076,44.003558 579.76538,46.452707 C 578.40471,48.901911 577.72439,51.660333 577.7244,54.727964 C 577.72439,59.403692 579.25822,63.312484 582.32589,66.454351 C 585.41828,69.596236 589.21574,71.167174 593.71829,71.167165 M 658.39894,61.741528 L 662.77778,64.042279 C 661.34287,66.862553 659.68534,69.138555 657.8052,70.870294 C 655.92498,72.602041 653.80979,73.925587 651.45959,74.840939 C 649.10934,75.731552 646.44988,76.176859 643.4812,76.176859 C 636.90056,76.176859 631.7548,74.024544 628.04394,69.719923 C 624.33305,65.390572 622.47761,60.504584 622.47762,55.061949 C 622.47761,49.94096 624.04855,45.376582 627.19043,41.368796 C 631.17344,36.272564 636.50473,33.724431 643.18433,33.724385 C 650.06179,33.724431 655.5539,36.334408 659.66064,41.554345 C 662.57982,45.240511 664.06417,49.842003 664.1137,55.35882 L 627.82129,55.35882 C 627.92024,60.059277 629.41696,63.918591 632.31145,66.936762 C 635.20592,69.930211 638.78073,71.426932 643.03589,71.426932 C 645.08922,71.426932 647.08073,71.068217 649.01042,70.35077 C 650.96478,69.63334 652.6223,68.680884 653.983,67.4934 C 655.34361,66.305925 656.81559,64.388637 658.39894,61.741528 M 658.39894,50.86865 C 657.70621,48.09789 656.6919,45.883732 655.35602,44.226175 C 654.04481,42.568681 652.30069,41.232771 650.12367,40.218425 C 647.9466,39.204152 645.65823,38.697002 643.25855,38.696966 C 639.30026,38.697002 635.89862,39.971069 633.05363,42.519166 C 630.97552,44.374637 629.40458,47.157799 628.34081,50.86865 L 658.39894,50.86865 M 673.05691,19.177733 L 678.25215,19.177733 L 678.25215,75.13781 L 673.05691,75.13781 L 673.05691,19.177733 M 708.23606,33.724385 C 714.44556,33.724431 719.59132,35.975693 723.67332,40.478192 C 727.38416,44.584926 729.2396,49.446175 729.23965,55.061949 C 729.2396,60.702498 727.27283,65.637965 723.33935,69.868359 C 719.43051,74.074022 714.39609,76.176859 708.23606,76.176859 C 702.05124,76.176859 696.99208,74.074022 693.05856,69.868359 C 689.14976,65.637965 687.19537,60.702498 687.19537,55.061949 C 687.19537,49.470914 689.0508,44.62203 692.76169,40.515296 C 696.84365,35.988058 702.00177,33.724431 708.23606,33.724385 M 708.23606,38.808288 C 703.93142,38.808333 700.23291,40.404001 697.14053,43.595328 C 694.04812,46.78671 692.50192,50.646024 692.50193,55.173271 C 692.50192,58.092511 693.20699,60.813829 694.61713,63.337205 C 696.02725,65.860618 697.93216,67.81501 700.33188,69.200399 C 702.73157,70.561058 705.36629,71.241392 708.23606,71.241383 C 711.10578,71.241392 713.7405,70.561058 716.14023,69.200399 C 718.53991,67.81501 720.44482,65.860618 721.85499,63.337205 C 723.26508,60.813829 723.97015,58.092511 723.97019,55.173271 C 723.97015,50.646024 722.41159,46.78671 719.29448,43.595328 C 716.20205,40.404001 712.51591,38.808333 708.23606,38.808288"
             style="fill:#2e3436;filter:url(#filter4284)" />
          <path
             d="M 539.50233,20.550757 L 564.95897,75.13781 L 559.09578,75.13781 L 550.52365,57.17715 L 526.99667,57.17715 L 518.46164,75.13781 L 512.3758,75.13781 L 538.16642,20.550757 L 539.50233,20.550757 M 538.83438,32.128708 L 529.44584,51.907699 L 548.11158,51.907699 L 538.83438,32.128708 M 572.93736,75.13781 L 572.93736,19.177733 L 578.09549,19.177733 L 578.09549,41.70278 C 580.27252,39.030977 582.70933,37.039481 585.40592,35.728265 C 588.10247,34.392381 591.05881,33.724431 594.27493,33.724385 C 599.98965,33.724431 604.86326,35.802519 608.8958,39.958668 C 612.95298,44.090141 614.98159,49.11219 614.98164,55.024835 C 614.98159,60.863308 612.94061,65.848244 608.85869,69.979681 C 604.77668,74.111136 599.86595,76.176859 594.12649,76.176859 C 590.83615,76.176859 587.85508,75.471785 585.18327,74.061657 C 582.51142,72.65152 580.14882,70.536318 578.09549,67.716044 L 578.09549,75.13781 L 572.93736,75.13781 M 593.71829,71.167165 C 596.61275,71.167174 599.28459,70.462101 601.7338,69.051963 C 604.18294,67.617096 606.12497,65.613226 607.55988,63.040334 C 609.01945,60.467479 609.74925,57.746171 609.7493,54.8764 C 609.74925,52.006674 609.01945,49.273 607.55988,46.675361 C 606.10023,44.077775 604.13346,42.061531 601.65958,40.626627 C 599.21037,39.167048 596.58801,38.437244 593.79251,38.437208 C 590.94748,38.437244 588.23854,39.167048 585.66569,40.626627 C 583.11753,42.061531 581.15076,44.003558 579.76538,46.452707 C 578.40471,48.901911 577.72439,51.660333 577.7244,54.727964 C 577.72439,59.403692 579.25822,63.312484 582.32589,66.454351 C 585.41828,69.596236 589.21574,71.167174 593.71829,71.167165 M 658.39894,61.741528 L 662.77778,64.042279 C 661.34287,66.862553 659.68534,69.138555 657.8052,70.870294 C 655.92498,72.602041 653.80979,73.925587 651.45959,74.840939 C 649.10934,75.731552 646.44988,76.176859 643.4812,76.176859 C 636.90056,76.176859 631.7548,74.024544 628.04394,69.719923 C 624.33305,65.390572 622.47761,60.504584 622.47762,55.061949 C 622.47761,49.94096 624.04855,45.376582 627.19043,41.368796 C 631.17344,36.272564 636.50473,33.724431 643.18433,33.724385 C 650.06179,33.724431 655.5539,36.334408 659.66064,41.554345 C 662.57982,45.240511 664.06417,49.842003 664.1137,55.35882 L 627.82129,55.35882 C 627.92024,60.059277 629.41696,63.918591 632.31145,66.936762 C 635.20592,69.930211 638.78073,71.426932 643.03589,71.426932 C 645.08922,71.426932 647.08073,71.068217 649.01042,70.35077 C 650.96478,69.63334 652.6223,68.680884 653.983,67.4934 C 655.34361,66.305925 656.81559,64.388637 658.39894,61.741528 M 658.39894,50.86865 C 657.70621,48.09789 656.6919,45.883732 655.35602,44.226175 C 654.04481,42.568681 652.30069,41.232771 650.12367,40.218425 C 647.9466,39.204152 645.65823,38.697002 643.25855,38.696966 C 639.30026,38.697002 635.89862,39.971069 633.05363,42.519166 C 630.97552,44.374637 629.40458,47.157799 628.34081,50.86865 L 658.39894,50.86865 M 673.05691,19.177733 L 678.25215,19.177733 L 678.25215,75.13781 L 673.05691,75.13781 L 673.05691,19.177733 M 708.23606,33.724385 C 714.44556,33.724431 719.59132,35.975693 723.67332,40.478192 C 727.38416,44.584926 729.2396,49.446175 729.23965,55.061949 C 729.2396,60.702498 727.27283,65.637965 723.33935,69.868359 C 719.43051,74.074022 714.39609,76.176859 708.23606,76.176859 C 702.05124,76.176859 696.99208,74.074022 693.05856,69.868359 C 689.14976,65.637965 687.19537,60.702498 687.19537,55.061949 C 687.19537,49.470914 689.0508,44.62203 692.76169,40.515296 C 696.84365,35.988058 702.00177,33.724431 708.23606,33.724385 M 708.23606,38.808288 C 703.93142,38.808333 700.23291,40.404001 697.14053,43.595328 C 694.04812,46.78671 692.50192,50.646024 692.50193,55.173271 C 692.50192,58.092511 693.20699,60.813829 694.61713,63.337205 C 696.02725,65.860618 697.93216,67.81501 700.33188,69.200399 C 702.73157,70.561058 705.36629,71.241392 708.23606,71.241383 C 711.10578,71.241392 713.7405,70.561058 716.14023,69.200399 C 718.53991,67.81501 720.44482,65.860618 721.85499,63.337205 C 723.26508,60.813829 723.97015,58.092511 723.97019,55.173271 C 723.97015,50.646024 722.41159,46.78671 719.29448,43.595328 C 716.20205,40.404001 712.51591,38.808333 708.23606,38.808288"
             id="path6071" />
          <path
             d="M 572.92891,19.172749 L 572.92891,51.510161 C 574.6426,51.283564 576.36973,51.06423 578.13003,50.860021 C 578.46515,49.291742 579.00634,47.824094 579.76951,46.450374 C 581.15489,44.001224 583.12915,42.062273 585.67731,40.627378 C 588.25017,39.167798 590.94491,38.450858 593.78993,38.450821 C 596.58543,38.450858 599.19894,39.167789 601.64815,40.627378 C 604.12203,42.062282 606.09628,44.078933 607.55594,46.676509 C 607.91455,47.314737 608.21825,47.972276 608.48875,48.62693 C 610.32082,48.560727 612.17093,48.500294 614.02908,48.457328 C 613.06099,45.294865 611.34616,42.455722 608.88449,39.948971 C 604.85196,35.792822 599.98518,33.730283 594.27047,33.730238 C 591.05435,33.730283 588.09118,34.4013 585.39464,35.737192 C 582.69805,37.048409 580.27879,39.029711 578.10176,41.701523 L 578.10176,19.172749 L 572.92891,19.172749 z M 673.05051,19.172749 L 673.05051,51.227491 C 674.80486,51.447169 676.54654,51.691983 678.25163,51.934166 L 678.25163,19.172749 L 673.05051,19.172749 z M 538.16054,20.55783 L 515.46216,68.611677 C 517.74339,66.950448 520.56479,65.37667 523.82918,63.862826 L 526.99508,57.163555 L 543.19206,57.163555 C 546.98053,56.171732 551.02321,55.239556 555.29032,54.393392 L 539.48908,20.55783 L 538.16054,20.55783 z M 538.83894,32.11902 L 548.11051,51.905899 L 529.45431,51.905899 L 538.83894,32.11902 z M 643.17232,33.730238 C 636.49273,33.730283 631.18448,36.266079 627.20149,41.362319 C 625.51394,43.51496 624.27965,45.842204 623.49851,48.315994 C 623.69784,48.315722 623.89256,48.315994 624.09212,48.315994 C 625.80417,48.315994 627.51445,48.352808 629.20844,48.372527 C 630.20226,45.887703 631.47205,43.932614 633.05275,42.521265 C 635.89775,39.973167 639.29885,38.705251 643.25713,38.705224 C 645.65681,38.70526 647.94892,39.217376 650.126,40.23164 C 652.30302,41.245986 654.04417,42.559789 655.35539,44.217283 C 656.49604,45.632612 657.39726,47.474117 658.06902,49.701075 C 659.92758,49.853699 661.76359,50.004956 663.58108,50.181613 C 662.91224,46.897905 661.60411,44.02524 659.65197,41.560188 C 655.54522,36.340251 650.04978,33.730283 643.17232,33.730238 z M 708.24289,33.730238 C 702.0086,33.730283 696.83454,35.987063 692.75259,40.51431 C 689.42944,44.191947 687.61601,48.479553 687.2688,53.347514 C 689.06059,53.660739 690.83361,53.998278 692.55472,54.336858 C 692.7389,50.177163 694.23826,46.583785 697.13397,43.59541 C 700.22636,40.404083 703.93824,38.818328 708.24289,38.818292 C 712.52274,38.818337 716.20286,40.404083 719.29527,43.59541 C 722.41237,46.786791 723.95928,50.65762 723.95932,55.184867 C 723.95928,57.915031 723.35531,60.461292 722.12197,62.845215 C 723.79725,63.558629 725.35655,64.299106 726.81429,65.050039 C 728.42948,62.014619 729.24522,58.686262 729.24524,55.071799 C 729.2452,49.456025 727.38749,44.592768 723.67665,40.486043 C 719.59465,35.983545 714.45238,33.730283 708.24289,33.730238 z"
             id="path6073"
             style="fill:url(#linearGradient6269);fill-opacity:1" />
        </g>
      </g>
      <text
         sodipodi:linespacing="125%"
         id="text3409"
         y="99.88118"
         x="198.89415"
         style="font-size:10px;font-style:normal;font-variant:normal;font-weight:normal;font-stretch:normal;text-align:center;line-height:125%;writing-mode:lr-tb;text-anchor:middle;fill:#000000;fill-opacity:1;stroke:none;stroke-width:1px;stroke-linecap:butt;stroke-linejoin:miter;stroke-opacity:1;font-family:Nimbus Sans L"
         xml:space="preserve"><tspan
           y="99.88118"
           x="198.89415"
           id="tspan3411"
           sodipodi:role="line">Sistema Web de Administração Comercial</tspan></text>
    </g>
  </g>
</svg>
