<?xml version="1.0" encoding="UTF-8" standalone="no"?>
<!-- Created with Inkscape (http://www.inkscape.org/) -->
<svg
   xmlns:dc="http://purl.org/dc/elements/1.1/"
   xmlns:cc="http://creativecommons.org/ns#"
   xmlns:rdf="http://www.w3.org/1999/02/22-rdf-syntax-ns#"
   xmlns:svg="http://www.w3.org/2000/svg"
   xmlns="http://www.w3.org/2000/svg"
   xmlns:sodipodi="http://sodipodi.sourceforge.net/DTD/sodipodi-0.dtd"
   xmlns:inkscape="http://www.inkscape.org/namespaces/inkscape"
   width="210mm"
   height="297mm"
   id="svg2"
   sodipodi:version="0.32"
   inkscape:version="0.45+devel"
   sodipodi:docname="beta.svg"
   inkscape:output_extension="org.inkscape.output.svg.inkscape">
  <defs
     id="defs4" />
  <sodipodi:namedview
     id="base"
     pagecolor="#ffffff"
     bordercolor="#666666"
     borderopacity="1.0"
     inkscape:pageopacity="0.0"
     inkscape:pageshadow="2"
     inkscape:zoom="0.44471381"
     inkscape:cx="372.04724"
     inkscape:cy="526.18109"
     inkscape:document-units="px"
     inkscape:current-layer="layer1"
     inkscape:window-width="1024"
     inkscape:window-height="703"
     inkscape:window-x="0"
     inkscape:window-y="0" />
  <metadata
     id="metadata7">
    <rdf:RDF>
      <cc:Work
         rdf:about="">
        <dc:format>image/svg+xml</dc:format>
        <dc:type
           rdf:resource="http://purl.org/dc/dcmitype/StillImage" />
      </cc:Work>
    </rdf:RDF>
  </metadata>
  <g
     inkscape:label="Camada 1"
     inkscape:groupmode="layer"
     id="layer1">
    <path
       style="font-size:200px;font-style:normal;font-variant:normal;font-weight:bold;font-stretch:normal;text-align:center;line-height:125%;writing-mode:lr-tb;text-anchor:middle;fill:#cc0000;fill-opacity:1;stroke:none;stroke-width:1px;stroke-linecap:butt;stroke-linejoin:miter;stroke-opacity:1;font-family:Bitstream Vera Sans;opacity:0.5"
       d="M 273.20103,354.95023 C 202.56398,395.73254 166.67919,469.65782 171.09278,542.21855 L 223.73089,511.82793 C 227.14828,463.48948 253.52446,418.77721 295.91978,394.30026 C 338.31509,369.82331 390.20703,369.34746 433.76911,390.5623 L 486.40722,360.17168 C 425.78349,320.06388 343.83808,314.16791 273.20103,354.95023 z M 99.507106,599.35352 L 172.41336,725.63085 L 226.45875,694.42773 C 243.26046,684.72726 254.02672,674.49998 258.80804,663.77084 C 263.58916,653.04184 262.48836,641.58312 255.45722,629.40454 C 250.86728,621.45481 245.05917,615.85319 238.06774,612.59757 C 231.07614,609.3422 223.50855,608.73472 215.34538,610.74131 C 219.60993,605.49776 221.95848,599.8989 222.36006,593.95359 C 222.72896,587.95217 221.11749,581.86415 217.56938,575.71838 C 210.83105,564.0475 202.00853,557.84978 191.05522,557.10701 C 180.15822,556.33203 165.91817,561.01125 148.38341,571.13477 L 99.507106,599.35352 z M 231.44066,523.18165 L 304.34691,649.45898 L 394.0888,597.64648 L 379.87005,573.01888 L 322.68531,606.0345 L 305.98218,577.10384 L 357.99783,547.07259 L 343.79471,522.47206 L 291.77906,552.50331 L 278.20093,528.98531 L 333.5183,497.04781 L 319.31518,472.44727 L 231.44066,523.18165 z M 334.79538,463.50977 L 348.99851,488.11031 L 390.94661,463.89156 L 449.64974,565.56835 L 482.20688,546.77148 L 423.50376,445.09468 L 465.37067,420.92281 L 451.16755,396.32227 L 334.79538,463.50977 z M 486.0792,376.16602 L 512.22007,529.44335 L 544.96666,510.5371 L 539.72321,482.89268 L 590.62926,453.50205 L 611.86712,471.9121 L 644.58664,453.02148 L 524.91502,353.74415 L 486.0792,376.16602 z M 144.86112,602.72149 L 162.88528,592.31524 C 168.01602,589.35314 172.56496,588.2634 176.54956,589.04496 C 180.50156,589.77043 183.72445,592.28493 186.23099,596.62619 C 188.77002,601.0241 189.36614,605.12433 188.01831,608.90942 C 186.67042,612.69477 183.43788,616.06458 178.30715,619.02671 L 160.283,629.43296 L 144.86112,602.72149 z M 522.63145,394.53889 L 568.89784,434.79961 L 534.31095,454.76836 L 522.63145,394.53889 z M 173.07987,651.59779 L 192.18656,640.56654 C 198.78319,636.75805 204.51556,635.28576 209.38081,636.16035 C 214.2134,636.97876 218.22684,640.10733 221.38445,645.57628 C 224.60704,651.15816 225.34353,656.314 223.61212,660.99721 C 221.93696,665.648 217.82055,669.86192 211.28031,673.63789 L 192.17362,684.66914 L 173.07987,651.59779 z M 257.67091,692.17626 C 318.31009,732.30015 400.2737,738.19665 470.91978,697.40915 C 541.56584,656.62161 577.42297,582.70126 572.98534,510.12939 L 520.34724,540.52001 C 516.93879,588.8533 490.58073,633.55511 448.18541,658.03206 C 405.79005,682.50899 353.88002,682.99531 310.30901,661.78564 L 257.67091,692.17626 z"
       id="text2293" />
  </g>
</svg>
